<svg id="Layer_1" data-name="Layer 1" xmlns="http://www.w3.org/2000/svg" viewBox="0 0 1103 938"><defs><style>.cls-1{fill:#fff;}.cls-2{fill:none;stroke:#fff;stroke-miterlimit:10;stroke-width:2px;}</style></defs><path class="cls-1" d="M374.16,308.57c-2.45,27.94-1.35,56.21,4.57,83.67a250.92,250.92,0,0,0,29.64,74.89,300.59,300.59,0,0,0,24.12,34.6c9.19,11.45,19,22.37,30.87,31.09,11.52,8.45,24.71,14.59,39.23,14.42,13.54-.16,26.83-4.61,38.49-11.34a95.92,95.92,0,0,0,30.09-27.17,309.75,309.75,0,0,0,23.78-39,328.8,328.8,0,0,0,28.94-82.61A422.77,422.77,0,0,0,632.33,299c-.06-15.22-.81-30.43-2.12-45.58-1.35-15.77-2.64-32-7.78-47.1-4.44-13-12.26-25.34-24.12-32.74-12.58-7.86-27.7-7.88-41.5-3.48C542,174.85,528.63,183.45,516,192.22c-6,4.14-12,8.89-15.34,15.52-3.13,6.21-3.72,13.36-.28,19.56,1.64,3,4.12,5.72,4.88,9.08.62,2.71.08,6-2.71,7.19l2.21,1.69c3.38-11.61-6.31-25.11-18.78-24a20.08,20.08,0,0,0-14.9,9.11,17.31,17.31,0,0,0-.74,17.35,19.41,19.41,0,0,0,16.81,10.72c1.95,0,1.92-2.89,0-3C466,254.21,447.47,235.9,446,214.8a1.52,1.52,0,0,0-1.9-1.44,75.36,75.36,0,0,0-43.69,30.93,1.52,1.52,0,0,0,.54,2.05,23.54,23.54,0,0,0,30.11-7.07l-2.74-1.15a17.68,17.68,0,0,1-32.2,4.94,1.53,1.53,0,0,0-2.35-.31c-15,11.75-24.11,30.25-25,49.22a63.54,63.54,0,0,0,1.31,16.1c.4,1.89,3.29,1.09,2.89-.8-4.82-23,4.44-47.93,22.93-62.39l-2.36-.31a20.69,20.69,0,0,0,37.68-5.66,1.51,1.51,0,0,0-2.74-1.15c-5.63,8.09-17.41,10.75-26,6l.53,2.05a72.29,72.29,0,0,1,41.9-29.55L443,214.8c1.22,17.63,13.3,33.43,29.47,40.23a43.93,43.93,0,0,0,14.63,3.4v-3c-10.64-.06-19.38-12.11-14.36-22a17.17,17.17,0,0,1,11.6-8.91,14.37,14.37,0,0,1,13.58,4.59,16.29,16.29,0,0,1,3.9,15.37c-.41,1.39,1.07,2.18,2.2,1.7,5.47-2.34,5-9.53,2.77-14-1.67-3.28-4.24-6.11-5.28-9.69a17.49,17.49,0,0,1,.55-10.56c2.44-7.11,8.4-12.21,14.36-16.41,6.21-4.39,12.62-8.55,19.2-12.36,12.76-7.41,27.31-14,42.42-13,14.2.93,26.08,9.45,33.79,21.08,8.55,12.91,11.64,28.47,13.47,43.6s3,30.07,3.58,45.16c1.17,29,.05,58.22-4.39,87a339.45,339.45,0,0,1-23.17,82.15,308.67,308.67,0,0,1-20,38.85c-7.25,11.92-14.94,23.93-25.34,33.38-19.56,17.77-49.24,29.71-74.88,18.43-13.3-5.84-24.83-15.56-34.58-26.18a292.73,292.73,0,0,1-26.29-33.46,255.81,255.81,0,0,1-34.15-71.26A260.27,260.27,0,0,1,376,329.46q.24-10.45,1.17-20.89c.17-1.92-2.83-1.91-3,0Z"/><path class="cls-1" d="M371.27,310.49c-2.56-9.15-13.36-15-22.43-12-9.57,3.16-13.69,13.89-13.34,23.23.46,12.19,8.06,22.58,13.39,33.08A99.39,99.39,0,0,1,356,373.07c.9,3.21,1.64,6.47,2.22,9.76.54,3.06.76,6.2,1.55,9.21a13.19,13.19,0,0,0,5.27,8,8.13,8.13,0,0,0,8.22.41c6.58-3.38,6.37-11.49,5.61-17.75-.23-1.9-3.23-1.92-3,0,.6,4.94,1.4,11.69-3.52,14.81A5.28,5.28,0,0,1,366,397a11.47,11.47,0,0,1-3.51-6.61c-.64-2.82-.88-5.73-1.39-8.58s-1.16-5.8-1.93-8.66a104.21,104.21,0,0,0-6.06-16.59c-4.7-10.13-11.82-19.45-14.06-30.57-1.58-7.83.18-17.92,7.12-22.78,7.8-5.47,19.69-1.09,22.25,8.08a1.51,1.51,0,0,0,2.9-.8Z"/><path class="cls-1" d="M367.49,306.3l5.31,18.47a1.5,1.5,0,0,0,2.94-.4,60.06,60.06,0,0,0-9.38-31.15c-1-1.63-3.64-.12-2.59,1.51a57.11,57.11,0,0,1,9,29.64l2.95-.39-5.31-18.48a1.5,1.5,0,0,0-2.89.8Z"/><path class="cls-1" d="M332.22,326.4l-9.23,5c-1.26.68-2.07,1.43-3.48.9a6.14,6.14,0,0,1-2.45-1.72c-2.61-2.9-3.19-7.84-.09-10.58a1.51,1.51,0,0,0,0-2.12,52.42,52.42,0,0,1-20.28-41.63l-2.95.4c2.51,7.06,10.27,9.22,17.07,7.78,8.87-1.88,13.82-9.58,15.4-18.08,1.09-5.86.86-11.86.45-17.79a1.52,1.52,0,0,0-1.5-1.5l-15,.57,1.3.74-3.32-6.21-.23,1.82,10.5-8.93c1.34-1.14-.37-3.12-1.82-2.35-4.35,2.31-10.34.47-12-4.34a9.13,9.13,0,0,1,.39-7c.73-1.47,1.8-1.57,3.3-2l5.17-1.5c1.57-.45,1.34-3.11-.4-2.94-5.15.49-7.67-5.24-7.46-9.64.28-6,5.95-10.37,10.31-13.72,5-3.83,9.67-7.75,13.56-12.74a60.85,60.85,0,0,0,8.9-15.86,59,59,0,0,0,3.83-20.78,1.51,1.51,0,0,0-1.9-1.44,24.45,24.45,0,0,0-17.7,24.82l1.9-1.44c-4.9-1-7.45-6.13-7.21-10.82.3-5.92,4.83-10.81,9-14.53a93.75,93.75,0,0,1,32.18-18.38A96.32,96.32,0,0,1,379.07,116a1.5,1.5,0,0,0,.4-2.94,70.13,70.13,0,0,0-45.87,2.59l1.46,2.5c10.94-12,29.11-11,43.81-13.7,7.82-1.44,15.38-3.93,21.7-8.9,7.34-5.79,12.43-13.76,18.16-21,6.26-7.91,14.43-16,25-16.84l-.4-2.94c-5.93,2.18-12.34,4.59-16.64,9.46A14.6,14.6,0,0,0,423.61,79c1.73,4.87,6.07,8.27,11.39,7.14,3.52-.75,6.43-3.19,9.11-5.44A97.46,97.46,0,0,0,452.26,73,100.45,100.45,0,0,0,467,52.67l-2.74-.36c2.28,10.09,14.24,13.55,23.32,11.92,12.72-2.27,22.16-13.11,35.06-14.78,6-.78,12.77.32,16.54,5.45a1.5,1.5,0,0,0,2.59-1.51C536.22,40.74,519.94,40,508.28,42.32c-8.55,1.72-17,4.71-25.87,4.24-8.08-.44-16.49-3.89-24.56-1.52-6.53,1.93-12.5,7.52-11.4,14.8.22,1.44,2.64,1.41,2.89,0,2.45-14.07,16.91-20.9,29.78-22.3,7.38-.8,14.85-.42,22.24-.13,6.54.25,13.08.59,19.6,1.15,12.83,1.12,25.74,3.15,37.87,7.63a77.9,77.9,0,0,1,16.87,8.58,63.38,63.38,0,0,1,7.66,6.09c2.6,2.41,4.45,5.53,6.29,8.54a106.76,106.76,0,0,1,15.26,46.3c.12,1.32,2.11,2.23,2.8.75C614,103,619.84,88.19,617.6,73.05a33.5,33.5,0,0,0-20.13-26,22.45,22.45,0,0,0-17.65.16l1.52,2.59c6-4.16,13.88-3,19.89.64,6.71,4.1,10.6,11.39,13.12,18.62,5.21,15,6,32,18.29,43.54,10.77,10.07,25.48,14.51,35.78,25.22a66.16,66.16,0,0,1,17.12,34.94c2.47,14.76,0,30.33-7.74,43.2-1,1.7,1.45,3,2.59,1.51,4.73-6.2-4.1-15.62-10.67-11.65a1.54,1.54,0,0,0-.3,2.36c8.06,10.32,17.14,22.29,15.12,36.22a22,22,0,0,1-2.93,8.39,23.76,23.76,0,0,1-7,6.85c-4.81,3.36-10.75,7.72-10.17,14.38.46,5.32,7,9.23,11.44,5.53,1.15-1-.08-3-1.46-2.51l-13.93,4.64a1.53,1.53,0,0,0-1.05,1.84A25.47,25.47,0,0,0,671,298.22l1.51-2.59c-9-4-19.83-8.67-29.54-4.47-7.1,3.07-13.08,11.24-10,19.11.69,1.78,3.59,1,2.89-.79-2.67-6.84,3-13.76,9.28-16,8.57-3,18.09,1.28,25.86,4.71,1.72.76,3.22-1.6,1.51-2.59a22.33,22.33,0,0,1-10.17-12.88l-1.05,1.85L675.2,280l-1.46-2.51c-1.94,1.62-4.9-.11-5.88-2-1.45-2.82.41-6.25,2.29-8.37,4-4.45,9.76-6.59,13.28-11.55,6.63-9.35,4.92-22,.14-31.66-3.17-6.44-7.63-12.13-12-17.76l-.31,2.35c4.13-2.49,9.43,3.8,6.57,7.55l2.59,1.51c14.34-23.74,11.1-55.73-5.91-77.26a63.51,63.51,0,0,0-15.65-14c-6.89-4.43-14.39-8-20.88-13-6.81-5.31-11.15-12.23-13.87-20.36S620,76.12,617.14,68s-7.28-16-14.88-20.39c-6.8-4-15.7-5-22.44-.36a1.5,1.5,0,0,0,1.52,2.59c9.63-4.25,20.16,1,26.49,8.5C616,68,616.29,81.19,613.35,93a122.26,122.26,0,0,1-8.23,21.93l2.79.76a110.13,110.13,0,0,0-13-43.2,104.22,104.22,0,0,0-6.14-9.92,34.8,34.8,0,0,0-7.28-7.26,75,75,0,0,0-16.66-9.92c-12.45-5.43-25.9-8-39.34-9.4-7-.74-14.08-1.16-21.14-1.47-7.68-.33-15.43-.78-23.11-.19-8.17.64-16.35,2.61-23.12,7.42C452.28,45.91,447.7,51.87,446.45,59h2.89c-.92-6.13,5.61-10.49,10.88-11.49,7.58-1.43,15.33,1.78,22.9,2,14,.47,27.32-7.56,41.37-4.93,6.22,1.16,12.07,4.24,14.72,10.24l2.59-1.51c-6.44-8.78-18.92-8.41-28.07-4.57C502.68,53.45,492,63.61,479.21,61.31c-5.46-1-10.73-4.07-12-9.8a1.52,1.52,0,0,0-2.74-.36,95.82,95.82,0,0,1-24,28.66c-2.33,1.86-5.25,3.92-8.4,3.51A6.62,6.62,0,0,1,427.38,80,11.44,11.44,0,0,1,428,67.35c3.83-5.17,10.34-7.57,16.15-9.71,1.47-.54,1.41-3.09-.4-3-20.07,1.57-28.59,22.46-41.11,35-6.28,6.28-13.86,9.67-22.46,11.47-8.13,1.69-16.45,2.19-24.6,3.75-8.45,1.63-16.72,4.64-22.65,11.13-.91,1,0,3.13,1.46,2.51a67.45,67.45,0,0,1,44.27-2.59l.4-3a99.4,99.4,0,0,0-39.58,12.75A89.4,89.4,0,0,0,322.79,138c-4.38,4.14-8.5,9.6-8.55,15.9-.05,5.81,3.41,12,9.42,13.21a1.52,1.52,0,0,0,1.9-1.45,21.46,21.46,0,0,1,15.5-21.93l-1.9-1.45a57.09,57.09,0,0,1-14.4,37.58c-4.58,5.11-10.34,8.66-15.36,13.26-4.22,3.87-7.51,8.84-6.71,14.78.71,5.23,4.5,10.67,10.33,10.12l-.39-2.95-7,2a4.9,4.9,0,0,0-3.36,3.1,12.11,12.11,0,0,0-.3,9.71c2.58,6.27,10.36,8.52,16.18,5.44L316.3,233l-10.5,8.92a1.53,1.53,0,0,0-.24,1.82l3.32,6.22a1.49,1.49,0,0,0,1.29.74l15-.57-1.5-1.5c.68,9.72,1.5,23.73-7.43,30.28-5.61,4.1-16.79,4.92-19.6-3a1.5,1.5,0,0,0-2.94.4A55.26,55.26,0,0,0,314.85,320V317.9c-4.17,3.69-3.64,10.29-.31,14.36,1.48,1.8,4.1,3.6,6.57,3.38a7.63,7.63,0,0,0,2.74-1.28l3.29-1.79,6.59-3.58c1.7-.92.19-3.52-1.51-2.59Z"/><path class="cls-1" d="M626.55,357.71c.48,5,1,10.12,3.45,14.57a14.33,14.33,0,0,0,9.79,7.33A9.9,9.9,0,0,0,650.2,375c2.28-3.72,2.55-8.32,2.95-12.55,1-11.06,2-22.17,1.54-33.28a107.85,107.85,0,0,0-1.84-16.32c-.93-4.76-2.06-9.8-4.45-14.07-2.25-4-6.19-7.33-11-6.45-4,.72-7.64,4.23-6.62,8.52.45,1.88,3.34,1.09,2.89-.79-.7-2.95,2.85-4.87,5.34-4.9,3.58-.05,6,3.39,7.43,6.28a51.19,51.19,0,0,1,3.6,12.43A100.26,100.26,0,0,1,651.64,328a210.43,210.43,0,0,1-1,28.84c-.36,4.15-.49,8.45-1.46,12.52-.78,3.26-2.48,6.69-6.09,7.39-3.81.74-7.85-1.76-9.87-4.86-2.72-4.17-3.23-9.3-3.69-14.13-.19-1.91-3.19-1.93-3,0Z"/><path class="cls-1" d="M489.85,420.2c-3.83-2.64-9.27.34-9.68,4.77a1.48,1.48,0,0,0,1.1,1.44L494.45,429a112.31,112.31,0,0,0,12.86,2.25,19,19,0,0,0,11.45-2.48c3.22-1.9,5.9-4.55,9-6.63s7.64-4.07,11.43-2.22l-.53-2.05a13.64,13.64,0,0,1-15.6,5.88c-1.84-.59-2.63,2.31-.79,2.89a16.67,16.67,0,0,0,19-7.26,1.52,1.52,0,0,0-.54-2c-7.36-3.58-14.25,2-19.78,6.29-3.16,2.46-6.51,4.51-10.62,4.7-4.42.21-8.84-1-13.15-1.83l-15.09-3,1.1,1.45c.22-2.35,3.37-3.41,5.16-2.18,1.6,1.1,3.1-1.5,1.52-2.59Z"/><path class="cls-1" d="M537.44,334.56c4.74,4.82,12,5.45,18.43,5.32,3.5-.07,7-.39,10.46-.66a42.58,42.58,0,0,0,10-1.54,23.65,23.65,0,0,0,8.91-4.85c2-1.82,3.61-4.76,2.23-7.41-1.55-3-5.92-3.76-8.87-4.43A52.78,52.78,0,0,0,568,320a35.85,35.85,0,0,0-8.94.82A26.59,26.59,0,0,0,544.82,328a27,27,0,0,1-3.46,2.95c-2.25,1.42-5,.68-6.89-1-4.12-3.51-6-10.28-5-15.51,1.55-7.74,7.63-13.65,14.5-17,8-3.93,17.32-5,26.12-5.72a141.75,141.75,0,0,1,28.83.66c2.41.3,4.82.68,7.21,1.12v-2.9a343,343,0,0,1-56.4,11.15q-8.1.86-16.23,1.27c-1.92.1-1.93,3.1,0,3a320.92,320.92,0,0,0,57.19-8.32q8.16-1.94,16.24-4.2c1.34-.38,1.51-2.62,0-2.9a143.28,143.28,0,0,0-28.42-2.29c-9.09.18-18.48.94-27.29,3.3-7.84,2.1-15.25,6-20.23,12.55a21.34,21.34,0,0,0-4,18.63c1.46,5.43,5.17,11.42,11.32,11.91,3.14.25,5.45-1.67,7.62-3.66a26.11,26.11,0,0,1,8.63-5.75,34,34,0,0,1,9.49-2.25,65.28,65.28,0,0,1,10.08.31,31.92,31.92,0,0,1,4.94.86,14.81,14.81,0,0,1,5,1.8c2.33,1.65-.26,4.3-1.76,5.45a24.29,24.29,0,0,1-9.5,4.1,75.33,75.33,0,0,1-9.85.95c-6.35.5-13.78,1.31-19.75-1.5a12.61,12.61,0,0,1-3.63-2.55c-1.36-1.38-3.48.74-2.12,2.12Z"/><path class="cls-1" d="M469.8,299.79c-5.89-8.05-15.14-12.71-24.87-14.23-11.16-1.74-22.3.59-32.76,4.52-6.6,2.48-13,5.52-19.3,8.58-1.37.66-.67,2.81.76,2.79q27.09-.37,54.17.9c7,.34,14.81.82,18.73,7.6a31.84,31.84,0,0,1,3.19,9.57c.63,3.07,1.37,6.38.79,9.52s-3.1,5.34-6.49,4.84c-3.59-.53-6.74-2.74-9.89-4.4a43.82,43.82,0,0,0-20.88-5,44.33,44.33,0,0,0-20.63,5.26c-2.64,1.44-6.78,3.82-5.32,7.48,1.28,3.2,5.74,3.6,8.64,4.1a94.32,94.32,0,0,0,48.11-4.2c1.88-.68,3.72-1.43,5.55-2.22s.24-3.35-1.51-2.59A91.57,91.57,0,0,1,420.54,339c-2-.25-4-.59-6-1-1.3-.26-3.39-.46-4.28-1.61-1.59-2.08,5.91-5.14,7.25-5.71a42.26,42.26,0,0,1,20.86-3,41.05,41.05,0,0,1,10.3,2.52c3.4,1.3,6.41,3.34,9.7,4.86,3.12,1.43,6.75,2.59,10.08,1.17a8.78,8.78,0,0,0,5.06-7.16,29,29,0,0,0-.71-9.5,40.81,40.81,0,0,0-3-9.91,16.54,16.54,0,0,0-6.65-7.32A25.57,25.57,0,0,0,453,299.68c-8.52-.82-17.17-.86-25.72-1.06q-13.48-.33-27-.24l-6.68.07.75,2.8c18.52-8.92,40.6-19,60.93-9.48a30.85,30.85,0,0,1,11.9,9.54c1.13,1.54,3.73.05,2.59-1.52Z"/><path class="cls-1" d="M589,475.22c1.57,15,2.43,30.09,3.29,45.16.43,7.55.86,15.1,1.41,22.65q.4,5.61.89,11.22c.32,3.54.8,7.08,1,10.63a78.26,78.26,0,0,1-1.53,18.88A104.11,104.11,0,0,1,589,601.92c-3.93,10.09-10.54,18.45-18.65,25.52a176.84,176.84,0,0,1-14.27,11c-5.2,3.69-10.67,7.23-16.74,9.29a28.48,28.48,0,0,1-19.5-.13c-6.09-2.26-11.62-6.07-17.14-9.43-11.28-6.88-22.54-14-32.6-22.62-9.86-8.46-18.17-18.41-23.57-30.31-10.79-23.8-8.7-50.63-11.36-76q-.51-4.89-1.27-9.75c-.3-1.9-3.19-1.1-2.89.79,4.08,26.1,1.1,53.42,9.84,78.72A85.72,85.72,0,0,0,462,612.17c9.51,9.37,20.62,17,31.89,24.08,5.79,3.65,11.62,7.32,17.59,10.67s12.15,5.76,18.95,5.57c13.24-.38,24.71-9.26,34.78-17,8.83-6.77,17.12-14.37,22.67-24.15a75,75,0,0,0,6.5-15.88,110.64,110.64,0,0,0,3.93-19.73,71.76,71.76,0,0,0,.39-9.72c-.12-3.44-.6-6.87-.91-10.3-.71-7.77-1.26-15.55-1.74-23.34-.94-15.28-1.64-30.57-2.92-45.83q-.48-5.67-1.07-11.34c-.2-1.9-3.2-1.92-3,0Z"/><path class="cls-1" d="M470.46,335.14c12.47,6.17,18.79,19.53,21.35,32.59,1.53,7.81,1.94,15.79,2.39,23.73l1.42,24.81c.06,1,.5,4.14-1.33,3.67-1.6-.4-2.73-1.9-4.35-2.3-2.6-.62-6.67,1.37-4.9,4.47a1.5,1.5,0,0,0,2.59-1.51c-.11-.19-.08.26-.06.27s.34-.19.42-.22a2.08,2.08,0,0,1,1.55,0c1.5.66,2.62,1.91,4.28,2.24,3.61.72,5-2.78,4.85-5.74-.35-8.41-1-16.82-1.44-25.22-.86-15.09-1.63-31-9.59-44.33A38.51,38.51,0,0,0,472,332.55c-1.73-.85-3.25,1.73-1.52,2.59Z"/><path class="cls-1" d="M509.27,431.33a14.93,14.93,0,0,0,6.1,18.87,1.54,1.54,0,0,0,2.21-.9A19.24,19.24,0,0,0,514.15,430c-1.15-1.34-3.13.36-2.36,1.81l1.7,3.17c.91,1.7,3.5.19,2.59-1.51l-1.7-3.17L512,432.09a16.27,16.27,0,0,1,2.65,16.41l2.21-.89c-5-2.76-7.42-9.52-5-14.77a1.55,1.55,0,0,0-.54-2,1.52,1.52,0,0,0-2.05.54Z"/><path class="cls-1" d="M539.84,481.47a1.5,1.5,0,0,0,0-3,1.5,1.5,0,0,0,0,3Z"/><path class="cls-1" d="M433.68,560.53a196.9,196.9,0,0,0,27.22,30.81A202.1,202.1,0,0,0,494.06,616a198.69,198.69,0,0,0,37.34,17.24q4.88,1.66,9.83,3.06a40.61,40.61,0,0,0,11.71,1.93c5.81-.13,10.69-2.9,14.42-7.23,3.29-3.81,5.69-8.26,8.37-12.5,2.45-3.88,5.24-7.92,9.39-10.14a13.57,13.57,0,0,1,3.14-1.2c1.87-.48,1.07-3.37-.8-2.89-9.74,2.5-14,12.73-19.09,20.38-2.51,3.8-5.54,7.64-9.86,9.45-6.81,2.86-14.79-.1-21.42-2.16A193,193,0,0,1,500,616a198,198,0,0,1-33.18-23.33,194.25,194.25,0,0,1-27.55-29.48c-1-1.37-2-2.76-3-4.15-1.11-1.56-3.72-.07-2.59,1.51Z"/><path class="cls-2" d="M430.89,568.28A44.92,44.92,0,0,0,408,595.6c20.51,7.91,32.21,29.15,41.4,49.12s18.78,41.66,37.83,52.64c6.47,3.73,14.3,6,21.46,3.83,8.81-2.66,14.35-11.15,19.13-19l22.72-37.45a109.17,109.17,0,0,0,32,39.94c6.44-14,16.63-25.88,23.7-39.53A100,100,0,0,0,615.77,582c-2.09-11.69-6.79-23.66-16.41-30.63l-4,4.86"/><path class="cls-1" d="M414.79,606.39c-14.37,16.9-35.1,25.46-55.89,31.6-21.57,6.37-43.88,10.59-64.61,19.55-22.09,9.55-41.19,25-56.71,43.28-16.52,19.46-29,41.9-38.66,65.44-10.84,26.32-18.27,53.87-25.3,81.4Q172.3,852.84,171,858c-.47,1.88,2.42,2.67,2.89.8,7-27.56,14-55.21,24-81.85,9.11-24.15,20.84-47.49,36.8-67.88,14.83-18.94,33.18-35.36,54.85-46.05,20.22-10,42.58-14.42,64.17-20.43,20.69-5.75,41.87-13.13,57.7-28.27a77.13,77.13,0,0,0,5.48-5.81c1.24-1.46-.87-3.6-2.12-2.12Z"/><path class="cls-1" d="M626.26,603.11c27.66,5.46,55.47,10.15,83,16,27.23,5.8,54.29,12.79,80.28,22.84,23.12,8.94,45.16,20.41,65,35.29,18.47,13.85,35.09,30.48,48,49.65,12.6,18.67,21.59,39.79,24.94,62.14.43,2.83.75,5.67,1,8.52l2.25-1.29a387.6,387.6,0,0,1-85.58-73.9q-10.49-12.12-19.92-25.08l-1.69,2.2L856.7,712.7c1.2.48,2-.86,1.85-1.84-2.72-18.41-18.22-30.76-34.47-37.53-19.77-8.25-41.26-7.88-62.15-10.7-11.17-1.51-22.41-4-32.47-9.23-10.47-5.46-18.8-13.91-28.05-21.08a134,134,0,0,0-15.24-9.93q-9.74-5.6-19.82-10.55a197.42,197.42,0,0,0-21.09-9.1c-5.07-1.79-10.91-3.83-16.39-3.3a9.75,9.75,0,0,0-2.77.61c-1.76.73-1,3.64.8,2.9,4-1.66,9.59.16,13.66,1.4a151.79,151.79,0,0,1,20.37,8.2c11.48,5.42,23,11.36,33.6,18.45,9.27,6.23,17.08,14.36,26.29,20.69s19.78,10.07,30.69,12.25c20.81,4.15,42.58,2.88,63,9.12,16.38,5,34.1,15.09,39.71,32.36a39,39,0,0,1,1.45,6.24l1.84-1.85-33.07-13.19a1.52,1.52,0,0,0-1.7,2.2,389.79,389.79,0,0,0,80,81.56q12.91,9.81,26.62,18.5a1.51,1.51,0,0,0,2.26-1.3c-1.94-22.86-9.62-44.84-21.42-64.46-12-20-28-37.43-46-52.13a259.13,259.13,0,0,0-62.26-37.2c-26.07-11.15-53.42-18.92-81-25.18s-55.67-11.06-83.55-16.39q-5.15-1-10.28-2c-1.89-.37-2.7,2.52-.8,2.89Z"/><path class="cls-1" d="M404.54,605.61c-16.83,19.27-41,28.29-65.27,34.19-25.3,6.17-51.38,9.46-76,18.19-26.2,9.3-49,25.81-67.54,46.41-19.59,21.8-34.16,47.47-45.19,74.52C138,809.69,129.9,842,122.36,874.33c-.92,3.92-1.82,7.83-2.73,11.75-.43,1.88,2.46,2.68,2.89.8,7.45-32.16,14.93-64.45,26.37-95.47,10.34-28,24.09-55,43.17-78.16,17.58-21.33,39.6-39.41,65.36-49.85,24.14-9.78,50.18-13.36,75.45-19C357,639,381.75,631.44,400.29,614.3a85.89,85.89,0,0,0,6.37-6.57c1.27-1.45-.84-3.58-2.12-2.12Z"/><path class="cls-1" d="M123.5,878c19.62-.3,38.13-12.43,47.31-29.61a50.77,50.77,0,0,0,5.36-15.65c.31-1.88-2.58-2.7-2.89-.79-3,18.39-17,34.1-34.45,40.26A48.34,48.34,0,0,1,123.5,875c-1.93,0-1.94,3,0,3Z"/><path class="cls-1" d="M180.46,178a50.08,50.08,0,0,1,16.83,29.23l2.75-1.16c-5.65-12.69-.8-29,10.74-36.7.84-.56,1.1-2.1,0-2.59a29.48,29.48,0,0,1-16.89-21.33c-.32-1.68-2.95-1.26-2.94.4,0,5.65.53,11.59-.8,17.13-1.29,5.38-4.85,9.23-9.41,12.18-1.61,1.05-.11,3.65,1.52,2.6,5-3.27,9.09-7.56,10.65-13.47S194,152,194,145.89l-2.95.4a32.23,32.23,0,0,0,18.27,23.12v-2.59c-10,6.66-15.62,19.08-14.42,31a31.68,31.68,0,0,0,2.6,9.79c.73,1.65,3,.39,2.74-1.16a52.69,52.69,0,0,0-17.61-30.55c-1.46-1.24-3.59.87-2.12,2.12Z"/><path class="cls-1" d="M864.6,444.51c3.78,1.31,7.41,3.43,9.71,6.79a18.88,18.88,0,0,1,3,10c.33,8.18-2.35,16.32-5,24-1.41,4.12-2.94,8.2-4.22,12.35-.58,1.87,2.24,2.59,2.89.8,2.89-7.87,6-15.69,10.2-22.95a70.45,70.45,0,0,1,17.83-20.63A77.86,77.86,0,0,1,915,445.51a1.5,1.5,0,0,0,.3-2.35c-6-5-11.29-11.08-14-18.44a29.71,29.71,0,0,1-.38-20c.55-1.6-1.94-2.65-2.74-1.15-8.15,15.34-20.41,28.07-34,38.66-1.52,1.18.62,3.29,2.13,2.12,13.82-10.73,26.25-23.72,34.51-39.27L898,404a32.27,32.27,0,0,0,.38,21.53c2.92,7.87,8.38,14.47,14.8,19.77l.3-2.36a74.77,74.77,0,0,0-25.81,18.46,87,87,0,0,0-14.14,22.69c-2,4.44-3.7,9-5.37,13.53l2.89.8c2.52-8.18,5.87-16.09,7.82-24.45,1.79-7.69,2.79-16.75-1.69-23.76-2.74-4.26-7.06-6.94-11.77-8.57-1.83-.64-2.61,2.26-.8,2.89Z"/><path class="cls-1" d="M515.46,449.43a8,8,0,0,1,.72.91c.13.19.38.9.55,1s.19.16.37-.3l-.39.1a8.53,8.53,0,0,0-.87,0,41.92,41.92,0,0,1-5.12-.43,37.37,37.37,0,0,0-12.07.64c-8.81,1.86-16.77,6.39-24.41,11a1.52,1.52,0,0,0,.76,2.8q33.3-.12,66.51-2.78,9.4-.76,18.77-1.73a1.51,1.51,0,0,0,.76-2.79c-8.25-5.21-17.39-10.39-27.49-9.88s-18.18,6.9-27.08,11.12c-5.31,2.51-11.3,4.29-17.2,3.13a1.52,1.52,0,0,0-1.69,2.2c4.89,7.65,13.66,12.27,22.43,13.82A38.51,38.51,0,0,0,537.3,473a27.9,27.9,0,0,0,9.85-10.36c.88-1.71-1.7-3.23-2.6-1.51-3.74,7.19-11.29,11.71-19,13.65A36,36,0,0,1,500,471.68a26.26,26.26,0,0,1-9.86-8.76l-1.69,2.2c10.4,2,19.65-3.38,28.37-8.26,4.25-2.38,8.65-4.58,13.47-5.5a28.29,28.29,0,0,1,14.52,1.41c5.24,1.83,10,4.73,14.68,7.68l.76-2.8q-33.09,3.41-66.39,4.24-9.43.24-18.89.27l.76,2.79c6.64-4,13.46-7.91,21-10a36.88,36.88,0,0,1,11.82-1.4c2.69.14,5.4.83,8.1.6,1.48-.13,3-.76,3.11-2.47s-1.15-3.21-2.18-4.37c-1.28-1.45-3.4.67-2.12,2.12Z"/></svg>